# xmcd
#
# Track frame offsets: 
#        150
#        61500
#        96414
#        138573
#        151322
#        179193
#        229000
#        254448
#        295496
#        308812
#
# Disc length: 4503 seconds
#
# Revision: 2
# Processed by: cddbd v1.5.2PL0 Copyright (c) Steve Scherf et al.
# Submitted via: ExactAudioCopy v1.3
#
DISCID=9111950a
DTITLE=Royal Concertgebouw Orchestra - RCO 125 anniversary edition - Th
DTITLE=e Radio Legacy, CD 084 [1980-1990]
DYEAR=2013
DGENRE=Classical
TTITLE0=Wolfgang Amadeus Mozart: Concierto para piano No. 24 en Do men
TTITLE0=or (1786), KV. 491 - I. Allegro
TTITLE1=Wolfgang Amadeus Mozart: Concierto para piano No. 24 en Do men
TTITLE1=or (1786), KV. 491 - II. Larghetto
TTITLE2=Wolfgang Amadeus Mozart: Concierto para piano No. 24 en Do men
TTITLE2=or (1786), KV. 491 - III. Allegretto
TTITLE3=Igor Stravinsky: Symphonie des Psaumes (1930 - rev. 1948) - I. 
TTITLE3=Exaudi orationem meam Domine (Psalm 38, vs. 13-14)
TTITLE4=Igor Stravinsky: Symphonie des Psaumes (1930 - rev. 1948) - II.
TTITLE4=Expectans expectavi Dominum (Psalm 39, vs. 1-5)
TTITLE5=Igor Stravinsky: Symphonie des Psaumes (1930 - rev. 1948) - III
TTITLE5=Laudate Dominum (Psalm 150)
TTITLE6=Albert Roussel: Sinfonía No. 3 en Sol menor (1929-1930), op. 4
TTITLE6=2 - I. Allegro vivo
TTITLE7=Albert Roussel: Sinfonía No. 3 en Sol menor (1929-1930), op. 4
TTITLE7=2 - II. Adagio
TTITLE8=Albert Roussel: Sinfonía No. 3 en Sol menor (1929-1930), op. 4
TTITLE8=2 - III. Vivace 
TTITLE9=Albert Roussel: Sinfonía No. 3 en Sol menor (1929-1930), op. 4
TTITLE9=2 - IV. Allegro con spirito
EXTD=
EXTT0=
EXTT1=
EXTT2=
EXTT3=
EXTT4=
EXTT5=
EXTT6=
EXTT7=
EXTT8=
EXTT9=
PLAYORDER=
